name Walk10.mot
datacolumns 19
datarows 20
range 1.78000000 1.79900000
endheader

                time	   L_ground_force_vx	   L_ground_force_vy	   L_ground_force_vz	   L_ground_force_px	   L_ground_force_py	   L_ground_force_pz	   R_ground_force_vx	   R_ground_force_vy	   R_ground_force_vz	   R_ground_force_px	   R_ground_force_py	   R_ground_force_pz	   L_ground_torque_x	   L_ground_torque_y	   L_ground_torque_z	   R_ground_torque_x	   R_ground_torque_y	   R_ground_torque_z	
          1.78000000	        -12.85544779	        370.24007634	        -33.50581977	          0.45750766	          0.00000000	          0.16471391	          0.00000000	          0.00000000	          0.00000000	          0.00000000	          0.00000000	          0.00000000	          0.00000000	          3.46662898	          0.00000000	          0.00000000	          0.00000000	          0.00000000	
          1.78100000	        -12.77781888	        369.30608954	        -33.26502736	          0.45801034	          0.00000000	          0.16479603	          0.00000000	          0.00000000	          0.00000000	          0.00000000	          0.00000000	          0.00000000	          0.00000000	          3.41009315	          0.00000000	          0.00000000	          0.00000000	          0.00000000	
          1.78200000	        -12.70135054	        368.53069716	        -33.04032634	          0.45858458	          0.00000000	          0.16485078	          0.00000000	          0.00000000	          0.00000000	          0.00000000	          0.00000000	          0.00000000	          0.00000000	          3.35348510	          0.00000000	          0.00000000	          0.00000000	          0.00000000	
          1.78300000	        -12.62388688	        367.95190876	        -32.82596536	          0.45926638	          0.00000000	          0.16489029	          0.00000000	          0.00000000	          0.00000000	          0.00000000	          0.00000000	          0.00000000	          0.00000000	          3.30584503	          0.00000000	          0.00000000	          0.00000000	          0.00000000	
          1.78400000	        -12.54418883	        367.53690310	        -32.61603617	          0.46002387	          0.00000000	          0.16493683	          0.00000000	          0.00000000	          0.00000000	          0.00000000	          0.00000000	          0.00000000	          0.00000000	          3.27215933	          0.00000000	          0.00000000	          0.00000000	          0.00000000	
          1.78500000	        -12.45833733	        367.17545071	        -32.41172088	          0.46080089	          0.00000000	          0.16498467	          0.00000000	          0.00000000	          0.00000000	          0.00000000	          0.00000000	          0.00000000	          0.00000000	          3.25272320	          0.00000000	          0.00000000	          0.00000000	          0.00000000	
          1.78600000	        -12.36179457	        366.75672483	        -32.21753442	          0.46153392	          0.00000000	          0.16501740	          0.00000000	          0.00000000	          0.00000000	          0.00000000	          0.00000000	          0.00000000	          0.00000000	          3.24145785	          0.00000000	          0.00000000	          0.00000000	          0.00000000	
          1.78700000	        -12.25169088	        366.26635098	        -32.03536882	          0.46216148	          0.00000000	          0.16503605	          0.00000000	          0.00000000	          0.00000000	          0.00000000	          0.00000000	          0.00000000	          0.00000000	          3.22917407	          0.00000000	          0.00000000	          0.00000000	          0.00000000	
          1.78800000	        -12.12719365	        365.78221862	        -31.86246702	          0.46266092	          0.00000000	          0.16504199	          0.00000000	          0.00000000	          0.00000000	          0.00000000	          0.00000000	          0.00000000	          0.00000000	          3.20976633	          0.00000000	          0.00000000	          0.00000000	          0.00000000	
          1.78900000	        -11.99254527	        365.38241677	        -31.69271421	          0.46304969	          0.00000000	          0.16503247	          0.00000000	          0.00000000	          0.00000000	          0.00000000	          0.00000000	          0.00000000	          0.00000000	          3.18469358	          0.00000000	          0.00000000	          0.00000000	          0.00000000	
          1.79000000	        -11.85807869	        365.08691043	        -31.52436128	          0.46336086	          0.00000000	          0.16501983	          0.00000000	          0.00000000	          0.00000000	          0.00000000	          0.00000000	          0.00000000	          0.00000000	          3.16046984	          0.00000000	          0.00000000	          0.00000000	          0.00000000	
          1.79100000	        -11.73380218	        364.86964540	        -31.36635082	          0.46364341	          0.00000000	          0.16501361	          0.00000000	          0.00000000	          0.00000000	          0.00000000	          0.00000000	          0.00000000	          0.00000000	          3.13908346	          0.00000000	          0.00000000	          0.00000000	          0.00000000	
          1.79200000	        -11.62206668	        364.69901888	        -31.22974194	          0.46394742	          0.00000000	          0.16499825	          0.00000000	          0.00000000	          0.00000000	          0.00000000	          0.00000000	          0.00000000	          0.00000000	          3.11589442	          0.00000000	          0.00000000	          0.00000000	          0.00000000	
          1.79300000	        -11.51368176	        364.56939737	        -31.11575318	          0.46430063	          0.00000000	          0.16496138	          0.00000000	          0.00000000	          0.00000000	          0.00000000	          0.00000000	          0.00000000	          0.00000000	          3.08849967	          0.00000000	          0.00000000	          0.00000000	          0.00000000	
          1.79400000	        -11.39015018	        364.49771782	        -31.01506739	          0.46472525	          0.00000000	          0.16492477	          0.00000000	          0.00000000	          0.00000000	          0.00000000	          0.00000000	          0.00000000	          0.00000000	          3.06148986	          0.00000000	          0.00000000	          0.00000000	          0.00000000	
          1.79500000	        -11.23664440	        364.49518067	        -30.91138890	          0.46524247	          0.00000000	          0.16492112	          0.00000000	          0.00000000	          0.00000000	          0.00000000	          0.00000000	          0.00000000	          0.00000000	          3.04052281	          0.00000000	          0.00000000	          0.00000000	          0.00000000	
          1.79600000	        -11.05550264	        364.55276075	        -30.78875461	          0.46584487	          0.00000000	          0.16495121	          0.00000000	          0.00000000	          0.00000000	          0.00000000	          0.00000000	          0.00000000	          0.00000000	          3.02452552	          0.00000000	          0.00000000	          0.00000000	          0.00000000	
          1.79700000	        -10.86521563	        364.64768115	        -30.64391409	          0.46648782	          0.00000000	          0.16498634	          0.00000000	          0.00000000	          0.00000000	          0.00000000	          0.00000000	          0.00000000	          0.00000000	          3.00735625	          0.00000000	          0.00000000	          0.00000000	          0.00000000	
          1.79800000	        -10.68320985	        364.75966755	        -30.48813439	          0.46709593	          0.00000000	          0.16500820	          0.00000000	          0.00000000	          0.00000000	          0.00000000	          0.00000000	          0.00000000	          0.00000000	          2.98574171	          0.00000000	          0.00000000	          0.00000000	          0.00000000	
          1.79900000	        -10.50988052	        364.90392475	        -30.33655847	          0.46760300	          0.00000000	          0.16502994	          0.00000000	          0.00000000	          0.00000000	          0.00000000	          0.00000000	          0.00000000	          0.00000000	          2.95991564	          0.00000000	          0.00000000	          0.00000000	          0.00000000	
